<svg width="40" height="40" viewBox="0 0 40 40" fill="none" xmlns="http://www.w3.org/2000/svg">
    <path d="M20 -5.88094e-06C16.0444 -5.53513e-06 12.1776 1.17298 8.88859 3.3706C5.59961 5.56823 3.03616 8.6918 1.52241 12.3463C0.00865273 16.0008 -0.387414 20.0222 0.384291 23.9018C1.156 27.7814 3.06081 31.3451 5.85786 34.1421C8.65491 36.9392 12.2186 38.844 16.0982 39.6157C19.9778 40.3874 23.9991 39.9913 27.6537 38.4776C31.3082 36.9638 34.4318 34.4004 36.6294 31.1114C38.827 27.8224 40 23.9556 40 20C40 14.6957 37.8929 9.60858 34.1421 5.85786C30.3914 2.10713 25.3043 -6.34466e-06 20 -5.88094e-06ZM22.578 31.4L11.178 19.868L22.6 8.57799L25.4 11.422L16.822 19.906L25.422 28.6L22.578 31.4Z"
          fill="white"/>
</svg>
